PathFileType	4	(X/Y/Z)	/Users/niels/Desktop/University/Third Semester/Perception and Action/Exam/Gymnastics Motion Tracking/Code for Gym Tracking/Analyzed Data/Webcam_Backflip/id4_3_pure_Sports2D/id4_3_pure_Sports2D_px_person00.trc
DataRate	CameraRate	NumFrames	NumMarkers	Units	OrigDataRate	OrigDataStartFrame	OrigNumFrames
29.81132075471698	29.81132075471698	10	22	m	29.81132075471698	0	159
Frame#	Time	Hip			RHip			RKnee			RAnkle			RBigToe			RSmallToe			RHeel			LHip			LKnee			LAnkle			LBigToe			LSmallToe			LHeel			Neck			Head			Nose			RShoulder			RElbow			RWrist			LShoulder			LElbow			LWrist		
		X1	Y1	Z1	X2	Y2	Z2	X3	Y3	Z3	X4	Y4	Z4	X5	Y5	Z5	X6	Y6	Z6	X7	Y7	Z7	X8	Y8	Z8	X9	Y9	Z9	X10	Y10	Z10	X11	Y11	Z11	X12	Y12	Z12	X13	Y13	Z13	X14	Y14	Z14	X15	Y15	Z15	X16	Y16	Z16	X17	Y17	Z17	X18	Y18	Z18	X19	Y19	Z19	X20	Y20	Z20	X21	Y21	Z21	X22	Y22	Z22
0	0.0	0.9164821111492654	-0.5686413823946357	0.0	0.9164783403839734	-0.5673115799135443	0.0	0.9642199944816238	-0.6694626552251254	0.0	0.9536333319890499	-0.7808893607039044	0.0	0.9907645194214552	-0.7981581935258333	0.0	0.9788195090188463	-0.8008104175102247	0.0	0.9443394132584632	-0.7941527693733677	0.0	0.9204546555822489	-0.5659864277710693	0.0	0.9615670286654	-0.6681402998644211	0.0	0.9536360671559863	-0.7769161680634393	0.0	0.9907662887289348	-0.7968450537930805	0.0	0.9841237158096505	-0.7941813994356195	0.0	0.9443498643409679	-0.7915059165626853	0.0	1.0186061024114577	-0.45850740635053416	0.0	1.075642314841887	-0.4107481363350643	0.0	1.0623795901066224	-0.4452457813918943	0.0	1.0159709960354775	-0.4624879227428725	0.0	1.0796617528780528	-0.5075201447329222	0.0	1.1433596394798418	-0.5418701423232687	0.0	1.017275383621627	-0.46116296417520913	0.0	1.082310327527887	-0.5075176253958563	0.0	1.1420135382603773	-0.5405679420560872	0.0
1	0.03354430379746835	0.916165680823547	-0.5753314757864818	0.0	0.9166398860869274	-0.574441719373734	0.0	0.9656126276320147	-0.6755905799715423	0.0	0.95323518440634	-0.7861515770259593	0.0	0.9909441995608577	-0.8032844843779088	0.0	0.981241537467627	-0.8057576008236526	0.0	0.9441405550697186	-0.8000671523376075	0.0	0.9184018383342847	-0.5731817126978107	0.0	0.9622756060551777	-0.6747309053550871	0.0	0.9524137948688155	-0.7820931662296348	0.0	0.9891936443026308	-0.8017582097581133	0.0	0.9838080610482619	-0.7988047643228328	0.0	0.9429886959483316	-0.7967683229880754	0.0	1.020006180245016	-0.4676738155791036	0.0	1.0770468217762055	-0.4192198093718399	0.0	1.0641518771260703	-0.4548973342654704	0.0	1.0197891104390875	-0.4733738932552569	0.0	1.0717401419668175	-0.5276096695665987	0.0	1.1237656219137961	-0.571925110010468	0.0	1.0145154715476934	-0.46967776461625027	0.0	1.0701954512280374	-0.5264057523775492	0.0	1.1201300140809447	-0.5679329928990986	0.0
2	0.0670886075949367	0.9160286711385868	-0.5817116327211471	0.0	0.9171642331220902	-0.5813166653456465	0.0	0.967051172400739	-0.6816031878548432	0.0	0.952863866783422	-0.7914934364294682	0.0	0.9908929492530503	-0.808375964343313	0.0	0.9831326306351307	-0.8107096111293062	0.0	0.9440676006462898	-0.8058489424674673	0.0	0.9165872658369356	-0.5800415556871938	0.0	0.9629814710436247	-0.6811204353047201	0.0	0.951161261383887	-0.7873716824908655	0.0	0.9878958010547515	-0.8066493829981136	0.0	0.983090018353438	-0.8034643167059639	0.0	0.9417998071847788	-0.8021088147925997	0.0	1.0213269552837283	-0.476099284039382	0.0	1.0784024670883559	-0.42732496626148103	0.0	1.0657616232687	-0.4639312112224746	0.0	1.0230890154535157	-0.4834383266876086	0.0	1.0630376611166434	-0.5461543039043423	0.0	1.1032769850882795	-0.6000230118866655	0.0	1.0117462612303258	-0.4774453396469529	0.0	1.0571789880616238	-0.5433962637701922	0.0	1.0973006788796293	-0.5926675633577517	0.0
3	0.10063291139240506	0.9162542849194398	-0.587449861071431	0.0	0.9182726575126783	-0.5875964365490135	0.0	0.9685323162824181	-0.6873229980080391	0.0	0.9525432853459171	-0.7967644916062532	0.0	0.9905790177040833	-0.8131808053649279	0.0	0.9843348652364051	-0.8154605883591438	0.0	0.9441546555470816	-0.8112305696295803	0.0	0.9152865454811244	-0.5862125042792179	0.0	0.9637441382522506	-0.687040655670291	0.0	0.9499583604674987	-0.7925865944652971	0.0	0.9870769814686223	-0.8113150751547696	0.0	0.9819072699654313	-0.8079236051266409	0.0	0.9408624433557855	-0.8072956702829149	0.0	1.0224869019896925	-0.48305511005212975	0.0	1.0796649970249428	-0.434610427629037	0.0	1.0670785348585867	-0.4716556054357297	0.0	1.0255348862376135	-0.49189285568649194	0.0	1.0529579590861018	-0.5616091971343816	0.0	1.0812742014051375	-0.6240294133656219	0.0	1.0090530702638583	-0.4838230394618612	0.0	1.0426069940618374	-0.5567490642265854	0.0	1.072898602659211	-0.6122069819230962	0.0
4	0.1341772151898734	0.9169873426140739	-0.5922350547832541	0.0	0.9199971578761553	-0.5928835157808914	0.0	0.9700019272288718	-0.6924538663416195	0.0	0.9522969853163267	-0.8015856826238982	0.0	0.9902126771343106	-0.8172846410982826	0.0	0.9850666848734341	-0.8196233488816073	0.0	0.9443353759364709	-0.8158521419904518	0.0	0.9147572207266492	-0.5913459575312785	0.0	0.9646774483442091	-0.6921472165154647	0.0	0.948973984639009	-0.7973702132362731	0.0	0.9868056590063793	-0.8154177765355459	0.0	0.9805933017724187	-0.8117999025962684	0.0	0.9402057060664916	-0.811843049678496	0.0	1.023430578839734	-0.48797994044120485	0.0	1.0807475425074407	-0.44056121839380025	0.0	1.068049792712744	-0.4774510053037084	0.0	1.0270218129215791	-0.4980733253053713	0.0	1.0413201806819747	-0.5726247750526704	0.0	1.0576409691603499	-0.6418789865485505	0.0	1.0066546567180257	-0.48837886554937615	0.0	1.0264263020746711	-0.5652981192674391	0.0	1.0469630262375418	-0.6246961258580891	0.0
5	0.16772151898734178	0.9183404649673644	-0.5957610983040484	0.0	0.9222798204570554	-0.5967614282607169	0.0	0.9713661660348718	-0.6965751124007415	0.0	0.9521549912842383	-0.8055208858357186	0.0	0.9900552280352499	-0.8203522042328332	0.0	0.9856181994831194	-0.8228454285236079	0.0	0.9445147638107659	-0.819401005648172	0.0	0.9152335364341125	-0.5950968357213289	0.0	0.9658529069574824	-0.6960686754422818	0.0	0.9483632863352796	-0.801354902527322	0.0	0.9870290353664559	-0.8186632108871592	0.0	0.9796719978794087	-0.8148588401722038	0.0	0.9398870593881928	-0.8153020548059713	0.0	1.0241439163278496	-0.4905143395349356	0.0	1.0815190828186352	-0.44461503368451916	0.0	1.068680674606445	-0.4808235590641862	0.0	1.0275646515449641	-0.501460532043815	0.0	1.0284134000325478	-0.5781016800044291	0.0	1.0327363876191384	-0.6517213953481751	0.0	1.0048538345482279	-0.49082923229453373	0.0	1.009448182362926	-0.5686108533807165	0.0	1.0203490333923582	-0.6294916863871042	0.0
6	0.20126582278481012	0.9204070830949826	-0.5977280872388714	0.0	0.9250357468620353	-0.5988580990242205	0.0	0.9724892668502564	-0.6992593991987278	0.0	0.952142266871809	-0.8082240589470994	0.0	0.9901985511884553	-0.8222708324736945	0.0	0.9860840485692944	-0.8249682354707678	0.0	0.9446457341667097	-0.8216921707733785	0.0	0.9169276110870502	-0.5971535036227349	0.0	0.9671865251032804	-0.6985111932558931	0.0	0.9481949360723881	-0.8042288658712481	0.0	0.9876362793681663	-0.8208593807943508	0.0	0.9795271584496309	-0.8170710224616429	0.0	0.9399414032755028	-0.8174570490183568	0.0	1.0246193543127937	-0.49047612063191554	0.0	1.0818848096041214	-0.4462398262843672	0.0	1.0689852406639822	-0.48140955335340146	0.0	1.0271885868631412	-0.5017316885318408	0.0	1.0148774721258924	-0.5773425850485876	0.0	1.0073206342197394	-0.6521988759760818	0.0	1.003907025881871	-0.4909866173743663	0.0	0.9933219378318737	-0.56689097496	0.0	0.9947024086858377	-0.6271442066658851	0.0
7	0.23481012658227846	0.9232578262752978	-0.5978986268650772	0.0	0.928137254925691	-0.5989157880730409	0.0	0.9732023828956737	-0.7002089838099469	0.0	0.9522671940172054	-0.8094019150950741	0.0	0.9904628466094586	-0.8230318423856546	0.0	0.9862544580182516	-0.825938012464004	0.0	0.9447605949122865	-0.8225982834771712	0.0	0.9199495741739396	-0.5972849485468453	0.0	0.9684123415150044	-0.6992935453382526	0.0	0.9484382725002909	-0.8056214473099659	0.0	0.9884506319868562	-0.8217890075564419	0.0	0.9801461766334348	-0.8183499502623305	0.0	0.9402879155529178	-0.8182513722840381	0.0	1.0248074786925014	-0.4878576044785703	0.0	1.0818630736511206	-0.44502906911822626	0.0	1.0689672468427558	-0.4790205301756082	0.0	1.025918668726041	-0.4988319130224613	0.0	1.001472370224499	-0.570136647711403	0.0	0.9824189451685363	-0.6426610270168244	0.0	1.0038575672780314	-0.4887578111851644	0.0	0.9798366363681469	-0.5605093961082943	0.0	0.9718782293067542	-0.6184729002238004	0.0
8	0.2683544303797468	0.9268930797594308	-0.5961542480717149	0.0	0.9314219843062798	-0.5968470161178543	0.0	0.9733643542477909	-0.6993282056787481	0.0	0.952533813455647	-0.8087710939823988	0.0	0.990472716066118	-0.8225790742370687	0.0	0.9857296745719399	-0.8256682130396183	0.0	0.9449469239740965	-0.8219720657267263	0.0	0.924171494276871	-0.5953819778806854	0.0	0.9692073282816976	-0.6983284528421329	0.0	0.9490029106491027	-0.8051299478238774	0.0	0.9892422528691222	-0.821200018396432	0.0	0.9811594909570476	-0.8183753840963933	0.0	0.9407784948839846	-0.8176252638842259	0.0	1.0246215596754005	-0.4828110229835941	0.0	1.0815672795726265	-0.4408136672972785	0.0	1.0686199966094143	-0.47371847344560514	0.0	1.0238424318954211	-0.493000128183508	0.0	0.9889010325458842	-0.5567122217250071	0.0	0.9591911671944316	-0.6232151295313016	0.0	1.0044359013859065	-0.4841352438275083	0.0	0.9698514296064177	-0.5494830455718722	0.0	0.9529355978158636	-0.6035035702347467	0.0
9	0.3018987341772152	0.931170509491624	-0.5924946444607999	0.0	0.9347108388606276	-0.5927460873799077	0.0	0.972914556428931	-0.6967165264231193	0.0	0.9529597215515994	-0.8061484327310522	0.0	0.9898817765811634	-0.8208339063415009	0.0	0.9842426457928675	-0.8240532238715398	0.0	0.9452937949353222	-0.8196621094473164	0.0	0.9291461337871629	-0.5914628156389491	0.0	0.969389065563152	-0.6956455882061546	0.0	0.9498325859468213	-0.8025538655590589	0.0	0.9898515859159956	-0.8189745798276847	0.0	0.9820932431713796	-0.8167492097181737	0.0	0.9413704730245398	-0.8154459070796438	0.0	1.0239758409241844	-0.4755505623265734	0.0	1.0810627148833896	-0.43375529256110196	0.0	1.0679225563730392	-0.4658187474969889	0.0	1.0211663137402636	-0.4846717687215706	0.0	0.97778208221363	-0.5376891144565261	0.0	0.9389117726992825	-0.5945632897333162	0.0	1.005133304248149	-0.47717152347452857	0.0	0.9630033125736143	-0.5335031238009253	0.0	0.9378062212277306	-0.581391188390617	0.0
